<svg xmlns="http://www.w3.org/2000/svg" xmlns:xlink="http://www.w3.org/1999/xlink" viewBox="320.1111 280.3773 96.5777 103.2385" width="46.77407168837207" height="50" preserveAspectRatio="none"><defs/><style>.icon1PHbAijoAc {fill:#35C0ED;fill-opacity:1;}.icon2PHbAijoAc {fill:#9AEBA6;fill-opacity:1;}.icon3PHbAijoAc {fill:#2F90B0;fill-opacity:1;}</style><g opacity="1" transform="rotate(0 320.1111 280.3773)"> <svg width="96.5777" height="103.2385" x="320.1111" y="280.3773" version="1.1" preserveAspectRatio="none" viewBox="7.904999732971191 4.9992499351501465 84.19400024414062 90.00074768066406"> <g transform="matrix(1 0 0 1 0 0)" class="icon1PHbAijoAc"><g><path d="M86.59,43.099c0.829,0,1.5-0.672,1.5-1.5s-0.671-1.5-1.5-1.5H78.66h-9.894H54.947h-9.894H31.234H21.34H13.41 c-0.829,0-1.5,0.672-1.5,1.5s0.671,1.5,1.5,1.5h6.431v39.636H13.41c-0.829,0-1.5,0.672-1.5,1.5s0.671,1.5,1.5,1.5h7.931h9.894 h13.819h9.894h13.819h9.894h7.931c0.829,0,1.5-0.672,1.5-1.5s-0.671-1.5-1.5-1.5H80.16V43.099H86.59z M67.266,43.099v39.636H56.447 V43.099H67.266z M43.553,43.099v39.636H32.734V43.099H43.553z M22.84,82.734V43.099h6.894v39.636H22.84z M46.553,82.734V43.099 h6.894v39.636H46.553z M77.16,82.734h-6.894V43.099h6.894V82.734z"/><path d="M9.405,95h81.189c0.829,0,1.5-0.672,1.5-1.5s-0.671-1.5-1.5-1.5H9.405c-0.829,0-1.5,0.672-1.5,1.5S8.577,95,9.405,95z"/><path d="M7.915,32.428c0.004,0.061,0.007,0.122,0.018,0.182c0.009,0.046,0.024,0.089,0.036,0.133 c0.014,0.049,0.026,0.099,0.046,0.147c0.021,0.052,0.048,0.099,0.075,0.148c0.018,0.033,0.03,0.067,0.05,0.099 c0.004,0.006,0.009,0.01,0.013,0.016c0.029,0.044,0.064,0.084,0.098,0.125c0.03,0.036,0.057,0.076,0.09,0.109 c0.024,0.024,0.053,0.044,0.079,0.067c0.047,0.042,0.094,0.085,0.145,0.12c0.02,0.014,0.044,0.023,0.065,0.036 c0.061,0.037,0.122,0.074,0.188,0.102c0.027,0.012,0.057,0.018,0.085,0.028c0.063,0.023,0.127,0.046,0.193,0.06 c0.029,0.006,0.059,0.006,0.088,0.011c0.069,0.01,0.138,0.02,0.208,0.021c0.005,0,0.01,0.002,0.016,0.002h81.189 c0.117,0,0.23-0.017,0.34-0.042c0.03-0.007,0.058-0.018,0.088-0.027c0.08-0.024,0.158-0.053,0.232-0.09 c0.034-0.017,0.066-0.034,0.099-0.054c0.071-0.042,0.137-0.089,0.2-0.142c0.026-0.021,0.052-0.04,0.077-0.063 c0.083-0.079,0.157-0.167,0.22-0.263c0.003-0.005,0.008-0.008,0.011-0.013c0.02-0.032,0.032-0.066,0.05-0.099 c0.026-0.049,0.054-0.096,0.075-0.148c0.019-0.048,0.032-0.098,0.046-0.147c0.013-0.044,0.028-0.088,0.036-0.133 c0.011-0.061,0.015-0.121,0.018-0.182c0.002-0.032,0.01-0.063,0.01-0.095c0-0.006-0.002-0.012-0.002-0.018 c-0.001-0.062-0.01-0.123-0.019-0.185c-0.005-0.037-0.006-0.076-0.014-0.112c-0.011-0.05-0.03-0.099-0.046-0.148 c-0.014-0.043-0.024-0.088-0.042-0.13c-0.019-0.045-0.046-0.086-0.07-0.128c-0.023-0.041-0.042-0.085-0.069-0.124 c-0.026-0.038-0.059-0.072-0.089-0.108c-0.032-0.039-0.062-0.079-0.097-0.115c-0.028-0.027-0.06-0.049-0.09-0.075 c-0.046-0.039-0.091-0.079-0.142-0.112c-0.005-0.003-0.009-0.008-0.015-0.012L50.805,5.234c-0.491-0.313-1.119-0.313-1.61,0 L8.6,31.067c-0.005,0.003-0.009,0.008-0.015,0.012c-0.051,0.033-0.096,0.073-0.142,0.112c-0.03,0.025-0.063,0.048-0.09,0.075 c-0.036,0.035-0.065,0.076-0.097,0.115c-0.03,0.036-0.063,0.07-0.089,0.108c-0.026,0.039-0.046,0.082-0.069,0.124 c-0.023,0.043-0.051,0.084-0.07,0.128C8.01,31.783,8,31.827,7.985,31.871C7.969,31.92,7.95,31.968,7.94,32.018 c-0.008,0.036-0.009,0.075-0.014,0.112c-0.008,0.062-0.018,0.123-0.019,0.185c0,0.006-0.002,0.012-0.002,0.018 C7.905,32.366,7.913,32.396,7.915,32.428z M50,8.278l35.444,22.555H14.556L50,8.278z"/></g></g> </svg> </g></svg>