<?xml version="1.0" encoding="UTF-8" standalone="no"?>
<!-- Created with Inkscape (http://www.inkscape.org/) -->

<svg
   width="50.051888mm"
   height="11.532857mm"
   viewBox="0 0 50.051888 11.532857"
   version="1.1"
   id="svg5"
   xml:space="preserve"
   xmlns:xlink="http://www.w3.org/1999/xlink"
   xmlns="http://www.w3.org/2000/svg"
   xmlns:svg="http://www.w3.org/2000/svg"><defs
     id="defs2"><pattern
       xlink:href="#Strips1_1"
       id="pattern9805"
       patternTransform="matrix(10,0,0,10,-6.5057143,5.6571428)" /><pattern
       patternUnits="userSpaceOnUse"
       width="2"
       height="1"
       patternTransform="translate(0,0) scale(10,10)"
       id="Strips1_1"><rect
         style="fill:black;stroke:none"
         x="0"
         y="-0.5"
         width="1"
         height="2"
         id="rect4110" /></pattern><linearGradient
       id="linearGradient5092"><stop
         style="stop-color:#000000;stop-opacity:1;"
         offset="0"
         id="stop5090" /></linearGradient></defs><g
     id="layer1"
     transform="translate(-62.208471,-135.945)"><g
       id="g1069"
       style="fill:#35c0ed;fill-opacity:1"
       transform="matrix(0.12814179,0,0,0.12814179,41.395511,112.95867)" /><text
       xml:space="preserve"
       style="font-size:6.35px;font-family:Tahoma;-inkscape-font-specification:Tahoma;fill:#000000;stroke:#ffffff;stroke-width:1.00012"
       x="86.554283"
       y="114.84"
       id="text1155"><tspan
         id="tspan1153"
         x="86.554283"
         y="114.84"
         style="fill:#000000;stroke-width:1.00012" /></text><text
       xml:space="preserve"
       style="font-size:6.35px;font-family:Tahoma;-inkscape-font-specification:Tahoma;fill:#000000;stroke:#ffffff;stroke-width:1.00012"
       x="87.119995"
       y="117.38571"
       id="text1574"><tspan
         id="tspan1572"
         style="fill:#000000;stroke-width:1.00012"
         x="87.119995"
         y="117.38571" /></text><text
       xml:space="preserve"
       style="font-size:6.35px;font-family:Tahoma;-inkscape-font-specification:Tahoma;white-space:pre;inline-size:43.3655;fill:#000000;fill-opacity:1;stroke:#ffffff;stroke-width:1.00012"
       x="88.534286"
       y="114.27428"
       id="text1683" /><g
       id="g10436"
       transform="translate(19.8,22.345714)"><path
         d="m 86.59,43.099 c 0.829,0 1.5,-0.672 1.5,-1.5 0,-0.828 -0.671,-1.5 -1.5,-1.5 H 78.66 68.766 54.947 45.053 31.234 21.34 13.41 c -0.829,0 -1.5,0.672 -1.5,1.5 0,0.828 0.671,1.5 1.5,1.5 h 6.431 V 82.735 H 13.41 c -0.829,0 -1.5,0.672 -1.5,1.5 0,0.828 0.671,1.5 1.5,1.5 h 7.931 9.894 13.819 9.894 13.819 9.894 7.931 c 0.829,0 1.5,-0.672 1.5,-1.5 0,-0.828 -0.671,-1.5 -1.5,-1.5 H 80.16 V 43.099 Z m -19.324,0 V 82.735 H 56.447 V 43.099 Z m -23.713,0 V 82.735 H 32.734 V 43.099 Z M 22.84,82.734 V 43.099 h 6.894 V 82.735 H 22.84 Z m 23.713,0 V 43.099 h 6.894 v 39.636 h -6.894 z m 30.607,0 H 70.266 V 43.099 h 6.894 z"
         id="path1063"
         style="fill:#35c0ed;fill-opacity:1"
         transform="matrix(0.12814179,0,0,0.12814179,41.39551,112.95867)" /><path
         d="m 9.405,95 h 81.189 c 0.829,0 1.5,-0.672 1.5,-1.5 0,-0.828 -0.671,-1.5 -1.5,-1.5 H 9.405 c -0.829,0 -1.5,0.672 -1.5,1.5 0,0.828 0.672,1.5 1.5,1.5 z"
         id="path1065"
         style="fill:#35c0ed;fill-opacity:0.988235"
         transform="matrix(0.12814179,0,0,0.12814179,41.39551,112.95867)" /><path
         d="m 7.915,32.428 c 0.004,0.061 0.007,0.122 0.018,0.182 0.009,0.046 0.024,0.089 0.036,0.133 0.014,0.049 0.026,0.099 0.046,0.147 0.021,0.052 0.048,0.099 0.075,0.148 0.018,0.033 0.03,0.067 0.05,0.099 0.004,0.006 0.009,0.01 0.013,0.016 0.029,0.044 0.064,0.084 0.098,0.125 0.03,0.036 0.057,0.076 0.09,0.109 0.024,0.024 0.053,0.044 0.079,0.067 0.047,0.042 0.094,0.085 0.145,0.12 0.02,0.014 0.044,0.023 0.065,0.036 0.061,0.037 0.122,0.074 0.188,0.102 0.027,0.012 0.057,0.018 0.085,0.028 0.063,0.023 0.127,0.046 0.193,0.06 0.029,0.006 0.059,0.006 0.088,0.011 0.069,0.01 0.138,0.02 0.208,0.021 0.005,0 0.01,0.002 0.016,0.002 h 81.189 c 0.117,0 0.23,-0.017 0.34,-0.042 0.03,-0.007 0.058,-0.018 0.088,-0.027 0.08,-0.024 0.158,-0.053 0.232,-0.09 0.034,-0.017 0.066,-0.034 0.099,-0.054 0.071,-0.042 0.137,-0.089 0.2,-0.142 0.026,-0.021 0.052,-0.04 0.077,-0.063 0.083,-0.079 0.157,-0.167 0.22,-0.263 0.003,-0.005 0.008,-0.008 0.011,-0.013 0.02,-0.032 0.032,-0.066 0.05,-0.099 0.026,-0.049 0.054,-0.096 0.075,-0.148 0.019,-0.048 0.032,-0.098 0.046,-0.147 0.013,-0.044 0.028,-0.088 0.036,-0.133 0.011,-0.061 0.015,-0.121 0.018,-0.182 0.002,-0.032 0.01,-0.063 0.01,-0.095 0,-0.006 -0.002,-0.012 -0.002,-0.018 -10e-4,-0.062 -0.01,-0.123 -0.019,-0.185 -0.005,-0.037 -0.006,-0.076 -0.014,-0.112 -0.011,-0.05 -0.03,-0.099 -0.046,-0.148 -0.014,-0.043 -0.024,-0.088 -0.042,-0.13 -0.019,-0.045 -0.046,-0.086 -0.07,-0.128 -0.023,-0.041 -0.042,-0.085 -0.069,-0.124 -0.026,-0.038 -0.059,-0.072 -0.089,-0.108 -0.032,-0.039 -0.062,-0.079 -0.097,-0.115 -0.028,-0.027 -0.06,-0.049 -0.09,-0.075 C 91.515,31.154 91.47,31.114 91.419,31.081 91.414,31.078 91.41,31.073 91.404,31.069 L 50.805,5.234 c -0.491,-0.313 -1.119,-0.313 -1.61,0 L 8.6,31.067 c -0.005,0.003 -0.009,0.008 -0.015,0.012 -0.051,0.033 -0.096,0.073 -0.142,0.112 -0.03,0.025 -0.063,0.048 -0.09,0.075 -0.036,0.035 -0.065,0.076 -0.097,0.115 -0.03,0.036 -0.063,0.07 -0.089,0.108 -0.026,0.039 -0.046,0.082 -0.069,0.124 -0.023,0.043 -0.051,0.084 -0.07,0.128 C 8.01,31.783 8,31.827 7.985,31.871 7.969,31.92 7.95,31.968 7.94,32.018 7.932,32.054 7.931,32.093 7.926,32.13 c -0.008,0.062 -0.018,0.123 -0.019,0.185 0,0.006 -0.002,0.012 -0.002,0.018 0,0.033 0.008,0.063 0.01,0.095 z M 50,8.278 85.444,30.833 H 14.556 Z"
         id="path1067"
         style="fill:#35c0ed;fill-opacity:1"
         transform="matrix(0.12814179,0,0,0.12814179,41.39551,112.95867)" /><text
         xml:space="preserve"
         style="font-size:6.35px;font-family:Tahoma;-inkscape-font-specification:Tahoma;opacity:0.99;fill:#000000;fill-opacity:1;stroke:url(#pattern9805);stroke-width:1;stroke-dasharray:none;stroke-opacity:0.36036"
         x="56.005718"
         y="122.19428"
         id="text6113"><tspan
           id="tspan6111"
           style="font-style:normal;font-variant:normal;font-weight:normal;font-stretch:normal;font-family:'Sitka Banner';-inkscape-font-specification:'Sitka Banner';fill:#000000;fill-opacity:1;stroke:none;stroke-width:1;stroke-opacity:0.36036"
           x="56.005718"
           y="122.19428">Atlas Shrugged</tspan></text></g></g><style
     id="style1061">.icon1PHbAijoAc {fill:#35C0ED;fill-opacity:1;}.icon2PHbAijoAc {fill:#9AEBA6;fill-opacity:1;}.icon3PHbAijoAc {fill:#2F90B0;fill-opacity:1;}</style></svg>
